<svg xmlns="http://www.w3.org/2000/svg" viewBox="0 0 100 100"><defs><style>.cls-1{fill:#ddd;}.cls-1,.cls-2{stroke:#000;stroke-linecap:round;stroke-linejoin:round;stroke-width:3.09px;}.cls-2{fill:none;}</style></defs><g id="user"><path class="cls-1" d="M76.66,59.85c1.49-2,4.88-10.68,1.85-14.16-1.68-1.68-4-.89-5.5.61.76-1.16,6.72-31.14-26.14-32.56-13.56-.58-20.28,8.27-23,15.83S16.2,65,26.57,81.22c.64,1,3.08,3.93,10.27,5s24-5.42,27-9.57A61.83,61.83,0,0,0,67.7,66.27C71.61,65.59,74.79,62.39,76.66,59.85Z"/><circle cx="41.57" cy="60.49" r="2.32"/><path class="cls-2" d="M37.11,55.16A7,7,0,0,1,46.9,56"/><path class="cls-2" d="M33.13,50.43a13.13,13.13,0,0,1,18.5,1.62"/><path class="cls-2" d="M56.37,48.08A19.31,19.31,0,0,0,29.16,45.7"/></g></svg>