<?xml version="1.0" encoding="utf-8"?>
<!-- Generator: Adobe Illustrator 24.0.1, SVG Export Plug-In . SVG Version: 6.00 Build 0)  -->
<svg version="1.1" id="Layer_1" xmlns="http://www.w3.org/2000/svg" xmlns:xlink="http://www.w3.org/1999/xlink" x="0px" y="0px"
	 viewBox="0 0 200 200" style="enable-background:new 0 0 200 200;" xml:space="preserve">
<style type="text/css">
	.st0{fill:#75C3FD;}
	.st1{fill:none;stroke:#4C535B;stroke-width:11.3486;stroke-miterlimit:10;}
</style>
<g>
	<path class="st0" d="M116.9,34.3c21.5,21.5,17.4,56-4.8,77.8c-21.8,22.2-56.3,26.3-77.8,4.8l-6.4,6.4c13,13,28.2,21,45.8,19.6
		c16.6-1.3,34.7-7.8,48.1-21.2l0,0l0,0l0,0l0,0c13.4-13.4,19.9-31.5,21.2-48.1c1.4-17.5-6.6-32.8-19.6-45.8L116.9,34.3z"/>
	<circle class="st1" cx="78.8" cy="78.8" r="64.1"/>
	<path class="st1" d="M181.7,181.7L181.7,181.7c-4.7,4.7-12.3,4.7-17,0l-25.1-25.1c-4.7-4.7-4.7-12.3,0-17l0,0
		c4.7-4.7,12.3-4.7,17,0l25.1,25.1C186.4,169.4,186.4,177,181.7,181.7z"/>
	<line class="st1" x1="124.1" y1="124.1" x2="137.2" y2="137.2"/>
</g>
</svg>
